<?xml version="1.0" encoding="UTF-8" standalone="no"?>
<svg width="16px" height="19px" viewBox="0 0 16 19" version="1.1" xmlns="http://www.w3.org/2000/svg" xmlns:xlink="http://www.w3.org/1999/xlink">
    <!-- Generator: Sketch 40.1 (33804) - http://www.bohemiancoding.com/sketch -->
    <title>Icon - Cart</title>
    <desc>Created with Sketch.</desc>
    <defs></defs>
    <g id="Work" stroke="none" stroke-width="1" fill="none" fill-rule="evenodd">
        <g id="Ui-Kit" transform="translate(-181.000000, -916.000000)" fill="#FFFFFF">
            <g id="Icon---Cart" transform="translate(181.000000, 916.000000)">
                <path d="M0,19 L16,19 L16,5 L0,5 L0,19 Z M2,17 L14.001,17 L14.001,7 L2,7 L2,17 Z" id="Fill-1"></path>
                <polygon id="Fill-2" points="4 10 6 10 6 4 4 4"></polygon>
                <polygon id="Fill-3" points="10 10 12 10 12 4 10 4"></polygon>
                <path d="M8,2 C9.103,2 10,2.897 10,4 L12,4 C12,1.791 10.209,0 8,0 C5.791,0 4,1.791 4,4 L6,4 C6,2.897 6.897,2 8,2" id="Fill-4"></path>
            </g>
        </g>
    </g>
</svg>